{"glyphs":{":":{"x_min":0,"x_max":331,"ha":331,"o":"m 254 333 q 254 296 229 269 q 203 243 166 243 q 128 243 102 269 q 76 296 76 333 q 76 370 102 397 q 128 423 166 423 q 203 423 229 397 q 254 370 254 333 z m 254 71 q 254 34 229 8 q 203 -19 166 -19 q 129 -19 103 8 q 76 34 76 71 q 76 108 102 135 q 128 162 166 162 q 203 162 229 135 q 254 108 254 71 z m 197 344 q 197 361 185 375 q 173 389 157 389 q 141 389 129 375 q 117 361 117 344 q 117 327 129 313 q 141 299 157 299 q 173 299 185 313 q 197 327 197 344 z m 197 83 q 197 101 185 115 q 173 128 157 128 q 141 128 129 115 q 117 101 117 83 q 117 66 129 52 q 140 39 157 39 q 174 39 186 52 q 197 66 197 83 z"},"$":{"x_min":0,"x_max":487,"ha":487,"o":"m 443 633 q 443 597 419 573 q 394 548 358 548 q 348 548 339 551 q 330 553 321 558 q 312 563 306 571 q 301 578 301 588 q 301 599 309 608 q 317 617 333 624 l 332 620 q 329 607 337 602 q 346 596 360 596 q 377 596 385 605 q 394 614 394 633 q 394 653 375 663 q 355 673 316 673 q 280 673 254 648 q 227 624 227 588 q 227 569 240 552 q 254 534 280 519 q 321 495 346 479 q 371 464 378 457 q 405 431 418 397 q 431 364 431 322 q 431 272 408 233 q 385 193 339 163 l 370 0 l 304 -14 l 280 136 q 270 132 258 130 q 247 128 234 128 l 229 -5 l 167 -2 l 177 132 q 128 140 91 165 q 54 190 30 232 l 71 265 q 102 225 135 205 q 168 186 203 186 q 254 186 279 212 q 304 239 304 292 q 304 317 299 337 q 294 356 285 370 q 277 381 260 393 q 244 405 219 418 q 165 447 138 484 q 111 521 111 567 q 111 616 135 653 q 160 690 209 715 l 186 861 l 253 870 l 273 734 l 304 735 l 314 833 l 381 823 l 363 725 q 403 712 423 689 q 443 666 443 633 z"},"?":{"x_min":0,"x_max":576,"ha":576,"o":"m 576 616 l 520 617 q 520 589 511 564 q 503 539 486 516 l 543 482 l 512 441 l 464 487 q 452 475 433 462 q 414 450 388 438 l 430 379 l 380 350 l 349 422 q 338 418 329 416 q 319 414 311 413 l 295 235 l 222 219 l 178 425 q 226 428 265 442 q 304 456 336 478 q 374 504 392 539 q 411 574 411 618 q 411 649 403 675 q 395 700 378 720 q 360 740 336 750 q 312 760 280 760 q 260 760 243 755 q 225 750 210 740 q 192 729 184 714 q 175 699 175 680 q 175 652 188 638 q 202 624 229 624 q 246 624 260 631 q 274 639 285 654 l 309 635 q 300 621 287 609 q 275 597 259 588 l 282 542 l 232 524 l 218 573 q 213 571 207 571 q 200 570 192 570 q 166 570 146 579 q 126 588 113 606 l 61 578 l 47 628 l 100 645 q 99 648 98 653 q 97 658 97 663 q 97 686 107 707 q 117 729 136 748 l 92 785 l 127 830 l 170 775 q 193 789 220 798 q 247 807 277 811 l 273 867 l 319 873 l 319 812 q 349 811 375 804 q 400 797 422 784 l 461 833 l 496 803 l 452 764 q 478 740 494 714 q 510 687 516 657 l 572 673 z m 346 74 q 346 37 320 10 q 294 -18 257 -18 q 220 -18 194 10 q 168 37 168 74 q 168 110 194 137 q 220 163 257 163 q 293 163 320 137 q 346 110 346 74 z m 289 61 q 289 79 278 92 q 266 106 250 106 q 229 106 219 95 q 209 83 209 61 q 209 44 221 30 q 232 17 250 17 q 266 17 278 31 q 289 44 289 61 z"},"<":{"x_min":0,"x_max":507,"ha":507,"o":"m 455 517 l 242 341 l 451 185 l 398 121 l 116 263 l 44 380 l 86 405 l 116 356 l 146 373 l 116 423 l 151 445 l 183 393 l 213 415 l 185 464 l 220 485 l 244 442 l 275 461 l 252 503 l 400 594 z"},"'":{"x_min":0,"x_max":331,"ha":331,"o":"m 255 867 l 207 433 l 141 433 l 116 604 l 157 615 l 157 650 l 111 638 l 104 682 l 147 689 l 144 724 l 99 715 l 92 754 l 137 764 l 136 798 l 89 786 l 82 835 z"},"=":{"x_min":0,"x_max":491,"ha":491,"o":"m 465 491 l 459 391 l 37 440 l 31 491 z m 458 258 l 27 243 l 34 343 l 451 328 z m 427 459 l 220 468 l 220 450 l 415 422 z m 129 292 q 129 311 121 320 q 112 329 94 329 q 76 329 66 320 q 57 311 57 292 q 57 275 66 266 q 76 258 94 258 q 112 258 121 266 q 129 275 129 292 z"},"a":{"x_min":0,"x_max":561,"ha":561,"o":"m 524 50 l 523 24 q 448 -10 374 -27 q 300 -44 228 -44 q 188 -44 154 -36 q 121 -28 95 -13 q 63 5 48 33 q 32 62 32 99 q 32 166 98 218 q 165 270 297 308 q 287 339 261 355 q 235 372 196 372 q 153 372 119 354 q 84 337 57 303 l 31 328 q 72 391 133 423 q 193 455 274 455 q 339 455 389 419 q 438 382 473 310 q 500 252 512 188 q 525 123 524 50 z m 448 220 q 448 238 440 247 q 431 255 414 255 q 396 255 387 247 q 378 238 378 220 q 378 203 387 194 q 396 186 414 186 q 431 186 440 194 q 448 203 448 220 z m 332 86 q 332 131 328 174 q 324 218 315 260 q 269 247 232 232 q 195 217 168 201 l 218 -1 q 257 -1 285 3 q 313 8 331 18 q 332 35 332 52 q 332 69 332 86 z m 468 88 q 468 107 455 120 q 442 133 423 133 q 405 133 391 121 q 378 108 378 88 q 378 69 391 57 q 405 44 423 44 q 442 44 455 57 q 468 70 468 88 z"},"L":{"x_min":0,"x_max":684,"ha":684,"o":"m 685 134 q 685 93 654 65 q 624 38 564 24 q 529 16 467 11 q 405 5 316 3 q 234 1 182 -3 q 130 -8 108 -17 l 137 397 l 69 403 l 74 486 l 144 489 l 150 581 l 77 586 l 82 668 l 156 666 l 162 762 l 86 771 l 87 846 l 366 826 l 228 95 l 248 96 q 268 97 295 94 q 323 92 359 89 q 397 86 425 84 q 452 83 469 83 q 546 83 585 104 q 624 126 624 170 q 624 185 620 201 q 616 218 608 238 l 645 258 q 665 222 675 191 q 685 160 685 134 z m 519 333 q 519 308 500 290 q 482 271 458 271 q 432 271 414 290 q 396 308 396 333 q 396 357 414 375 q 433 393 458 393 q 482 393 500 375 q 519 357 519 333 z"},"3":{"x_min":0,"x_max":678,"ha":678,"o":"m 634 196 l 623 147 l 574 156 q 563 124 543 96 q 523 68 495 45 l 527 -10 l 485 -44 l 450 17 q 418 0 382 -8 q 346 -17 306 -17 l 292 -82 l 239 -72 l 255 -11 q 227 -6 202 7 q 176 19 155 39 l 102 -6 l 69 29 l 126 71 q 113 90 102 112 q 91 134 82 159 l 25 147 l 12 188 l 75 200 q 72 210 71 221 q 70 232 70 243 l 106 250 q 119 180 177 134 q 235 88 308 88 q 371 88 414 132 q 458 175 458 238 q 458 331 402 378 q 347 426 235 429 l 492 718 l 112 650 l 75 833 l 579 808 l 612 731 l 386 472 q 406 472 422 470 q 437 468 447 465 l 485 509 l 522 479 l 490 446 q 510 433 527 414 q 544 395 557 370 l 611 397 l 629 361 l 573 331 q 584 294 587 262 q 589 230 584 203 z"},";":{"x_min":0,"x_max":331,"ha":331,"o":"m 257 333 q 257 296 231 269 q 206 243 168 243 q 131 243 105 269 q 79 296 79 333 q 79 370 105 397 q 131 423 168 423 q 205 423 231 397 q 257 370 257 333 z m 283 112 l 245 96 q 248 86 248 73 q 248 60 245 42 l 280 34 l 274 -7 l 237 5 q 230 -17 220 -37 q 211 -56 200 -74 l 232 -104 l 203 -134 l 177 -102 q 170 -109 162 -117 q 154 -125 144 -133 l 114 -107 q 140 -86 152 -61 q 164 -35 164 -3 l 164 0 q 152 0 141 3 q 130 5 121 11 l 92 -24 l 61 5 l 100 34 q 93 42 90 55 q 87 68 88 86 l 46 99 l 61 136 l 101 116 q 108 128 118 136 q 128 145 142 150 l 133 181 l 178 187 l 181 153 q 195 152 208 146 q 220 140 230 128 l 265 151 z m 200 344 q 200 361 188 375 q 176 389 159 389 q 143 389 131 375 q 120 361 120 344 q 120 327 131 313 q 143 299 159 299 q 176 299 188 313 q 200 327 200 344 z"},"J":{"x_min":0,"x_max":623,"ha":623,"o":"m 641 812 l 630 723 l 499 718 q 498 718 498 691 q 499 665 499 613 l 567 609 l 560 536 l 496 543 q 494 507 491 480 q 489 452 486 433 l 548 433 l 539 353 l 476 358 q 445 171 381 78 q 317 -15 220 -15 q 173 -15 136 6 q 99 28 69 71 q 44 109 31 152 q 19 195 19 245 q 19 277 25 308 q 32 339 44 369 l 106 374 q 102 348 100 323 q 98 297 98 271 q 98 233 102 199 q 106 166 113 136 q 115 189 125 235 q 136 281 155 320 l 208 314 q 198 289 192 260 q 187 232 187 200 q 187 136 202 104 q 218 72 249 72 q 281 72 304 126 q 327 180 341 287 q 350 349 353 416 q 357 482 357 552 q 357 597 356 638 q 354 680 352 718 q 302 720 263 729 q 225 738 199 753 q 166 773 145 805 q 124 837 116 882 l 151 890 q 166 850 223 830 q 280 811 381 811 z"},"V":{"x_min":0,"x_max":688,"ha":688,"o":"m 657 743 q 657 698 637 636 q 618 574 579 495 q 549 436 516 377 q 482 319 453 259 q 417 188 389 121 q 361 54 341 -8 l 22 796 l 215 882 l 373 243 q 377 254 410 322 q 442 389 501 512 q 548 608 572 671 q 595 735 595 766 q 595 781 592 795 q 588 809 582 820 q 574 833 562 841 q 551 848 536 848 q 501 848 477 821 q 452 794 452 759 q 452 729 461 713 q 471 698 490 698 q 504 698 510 704 q 517 710 517 723 q 517 735 510 742 q 502 750 487 752 q 499 763 509 768 q 519 773 528 773 q 546 773 555 760 q 564 748 564 723 q 564 707 558 694 q 552 681 539 671 q 527 662 513 658 q 500 654 482 654 q 438 654 410 687 q 383 719 383 764 q 383 792 394 815 q 406 838 429 856 q 450 873 475 880 q 500 888 529 888 q 560 888 583 877 q 607 866 624 845 q 640 824 648 799 q 657 773 657 743 z m 223 475 l 223 494 q 223 549 215 611 q 208 673 189 742 l 144 735 q 167 676 180 613 q 194 550 198 484 z"},"\"":{"x_min":0,"x_max":485,"ha":485,"o":"m 233 825 l 190 466 l 136 466 l 114 606 l 151 617 l 148 646 l 111 637 l 106 670 l 142 679 l 138 707 l 101 700 l 99 730 l 133 740 l 132 768 l 94 759 l 87 798 z m 385 423 l 245 410 l 290 782 l 350 780 z m 348 598 q 348 612 341 619 q 333 626 319 626 q 305 626 297 619 q 290 612 290 598 q 290 583 297 576 q 305 569 319 569 q 333 569 341 576 q 348 583 348 598 z m 353 500 q 353 518 344 527 q 334 536 315 536 q 298 536 289 527 q 280 518 280 500 q 280 481 289 473 q 298 464 315 464 q 334 464 344 473 q 353 481 353 500 z"},"7":{"x_min":0,"x_max":630,"ha":630,"o":"m 227 477 q 227 452 209 434 q 191 416 166 416 q 141 416 123 434 q 104 452 104 477 q 104 502 123 521 q 141 539 166 539 q 191 539 209 521 q 227 502 227 477 z m 593 789 l 379 -29 l 170 44 l 481 724 l 25 655 l 61 855 z m 421 363 l 404 385 q 370 331 342 265 q 314 200 292 125 l 338 106 q 349 173 370 238 q 391 302 421 363 z"},"S":{"x_min":0,"x_max":587,"ha":587,"o":"m 557 675 q 557 599 510 552 q 464 506 388 506 q 356 506 329 513 q 302 521 279 537 q 254 555 242 579 q 229 604 229 634 q 229 659 239 679 q 248 699 267 712 q 284 725 305 731 q 327 737 353 737 q 369 737 384 733 q 398 729 410 721 q 423 711 429 699 q 436 687 436 670 q 436 647 418 631 q 400 616 376 616 q 360 616 350 621 q 339 626 333 638 q 337 637 341 637 q 346 636 349 636 q 366 636 375 642 q 383 648 383 662 q 383 674 374 681 q 365 688 348 688 q 336 688 325 684 q 314 681 307 675 q 297 667 292 658 q 288 648 288 637 q 288 601 311 583 q 334 566 381 566 q 427 566 456 597 q 484 629 484 675 q 484 703 471 725 q 458 747 433 763 q 412 777 386 783 q 360 790 331 790 q 294 790 265 781 q 235 772 212 754 q 187 734 174 707 q 162 680 162 645 q 162 609 185 575 q 208 542 255 510 q 299 480 343 451 q 386 422 430 393 q 477 351 500 302 q 523 252 523 194 q 523 140 504 97 q 485 55 446 24 q 410 -4 365 -20 q 319 -35 264 -35 q 221 -35 184 -27 q 148 -19 117 -3 q 80 17 61 47 q 42 76 42 116 q 42 176 74 213 q 106 250 166 250 q 189 250 209 243 q 229 236 245 223 q 262 209 271 191 q 279 172 279 150 q 279 108 259 87 q 239 66 198 66 q 176 66 160 79 q 144 91 144 112 q 144 130 152 140 q 161 149 178 149 q 180 149 182 149 q 185 148 187 148 q 181 144 178 139 q 175 134 175 129 q 175 120 181 115 q 187 111 198 111 q 211 111 217 119 q 223 127 223 144 q 223 155 218 164 q 213 173 202 180 q 193 186 182 189 q 171 192 159 192 q 125 192 108 173 q 91 153 91 116 q 91 94 102 77 q 112 60 132 47 q 148 37 169 32 q 189 27 213 27 q 243 27 268 38 q 292 48 312 69 q 331 89 341 114 q 350 139 350 170 q 350 202 330 239 q 311 275 270 315 q 234 351 197 385 q 159 420 122 455 q 83 498 62 539 q 42 580 42 620 q 42 678 63 723 q 83 768 124 798 q 161 826 209 839 q 258 853 319 853 q 364 853 404 842 q 443 832 477 810 q 517 785 537 751 q 557 717 557 675 z"},"}":{"x_min":0,"x_max":561,"ha":561,"o":"m 523 421 q 523 394 504 375 q 484 355 458 355 q 430 355 411 375 q 391 394 391 421 q 391 448 411 468 q 430 487 458 487 q 484 487 504 468 q 523 448 523 421 z m 397 71 q 397 35 385 2 q 374 -30 350 -57 q 325 -86 294 -100 q 264 -114 228 -114 q 183 -114 136 -114 q 90 -113 42 -111 l 42 -35 q 79 -31 120 -26 q 161 -21 206 -14 q 220 -8 231 35 q 242 77 249 157 q 254 208 257 260 q 259 312 259 365 l 326 413 l 259 446 q 259 492 257 560 q 255 628 252 719 l 44 829 l 55 911 l 332 804 l 396 95 q 396 88 397 82 q 397 76 397 71 z m 353 177 l 308 196 q 297 128 276 64 q 255 0 225 -61 l 242 -83 q 276 -29 304 36 q 332 101 353 177 z"},"Z":{"x_min":0,"x_max":704,"ha":704,"o":"m 202 584 l 187 455 l 72 482 l 109 562 z m 704 754 l 665 669 l 564 673 l 529 625 l 618 592 l 564 526 l 481 562 l 433 499 l 504 462 l 462 388 l 379 430 l 187 178 l 618 206 l 647 8 l 0 24 l 473 674 l 86 687 l 116 848 z m 269 107 q 269 124 261 132 q 253 141 237 141 q 221 141 213 132 q 205 124 205 107 q 205 90 213 82 q 221 74 237 74 q 253 74 261 82 q 269 90 269 107 z m 417 106 q 417 124 405 136 q 393 148 375 148 q 358 148 345 136 q 332 124 332 106 q 332 88 345 76 q 358 63 375 63 q 393 63 405 76 q 417 88 417 106 z m 554 104 q 554 120 546 128 q 539 137 522 137 q 506 137 497 128 q 489 120 489 104 q 489 87 497 79 q 506 71 522 71 q 539 71 546 79 q 554 87 554 104 z"},"x":{"x_min":0,"x_max":591,"ha":591,"o":"m 566 258 q 566 233 548 215 q 531 197 506 197 q 480 197 463 215 q 445 233 445 258 q 445 282 463 300 q 481 317 506 317 q 530 317 548 300 q 566 282 566 258 z m 146 223 q 146 198 128 180 q 110 163 84 163 q 60 163 42 180 q 25 198 25 223 q 25 248 42 265 q 60 283 84 283 q 109 283 128 265 q 146 248 146 223 z m 515 57 l 390 -39 l 270 161 l 104 -32 l 72 -3 l 233 220 l 104 438 l 163 477 l 301 312 l 411 468 l 486 413 l 350 254 z"},")":{"x_min":0,"x_max":561,"ha":561,"o":"m 398 458 q 398 387 380 310 q 362 232 326 149 q 287 61 241 -3 q 195 -67 142 -106 l 104 -74 q 138 -35 165 17 q 192 69 210 134 q 227 193 236 251 q 244 309 244 368 q 244 467 209 587 q 174 707 104 848 l 265 967 q 332 845 365 718 q 398 590 398 458 z m 284 773 q 284 791 275 799 q 266 808 248 808 q 231 808 222 799 q 213 791 213 773 q 213 756 222 747 q 230 739 247 739 q 265 739 274 747 q 284 756 284 773 z m 332 648 q 332 667 318 680 q 305 693 286 693 q 268 693 255 680 q 242 667 242 648 q 242 630 255 617 q 268 604 287 604 q 305 604 318 617 q 332 630 332 648 z m 348 523 q 348 537 338 548 q 328 560 314 560 q 296 560 288 551 q 279 542 279 524 q 279 507 287 498 q 296 489 312 489 q 331 489 339 498 q 348 506 348 523 z"},"&":{"x_min":0,"x_max":727,"ha":727,"o":"m 665 380 l 554 385 l 527 76 q 473 40 421 21 q 369 3 317 3 q 265 3 223 15 q 181 27 148 49 q 111 75 93 113 q 75 151 75 202 q 75 281 114 344 q 154 408 233 455 q 190 477 169 514 q 147 551 147 604 q 147 692 219 762 q 290 833 378 833 q 404 833 427 825 q 450 817 468 804 q 490 788 500 767 q 511 747 511 722 q 511 685 489 661 q 466 637 421 625 l 388 660 q 403 672 411 687 q 418 702 418 720 q 418 744 404 756 q 390 768 359 768 q 333 768 312 755 q 292 742 277 716 q 266 696 260 670 q 254 645 254 616 q 254 586 264 563 q 274 540 294 523 q 313 508 337 500 q 361 492 391 492 q 406 492 421 494 q 437 496 453 500 l 462 460 l 491 467 l 482 504 l 512 510 l 522 468 l 551 473 l 542 515 l 572 520 l 583 476 l 609 484 l 599 524 l 631 529 z m 214 328 q 214 345 206 354 q 197 363 180 363 q 163 363 154 354 q 145 345 145 328 q 145 311 154 302 q 163 292 180 292 q 197 292 206 302 q 214 311 214 328 z m 438 72 l 394 397 q 371 397 346 403 q 322 408 296 418 q 262 383 244 331 q 227 280 227 213 q 227 176 234 147 q 241 118 255 96 q 273 70 299 57 q 325 44 359 44 q 375 44 395 51 q 415 58 438 72 z m 194 218 q 194 237 181 250 q 168 263 150 263 q 131 263 118 250 q 104 237 104 218 q 104 200 118 187 q 131 173 150 173 q 168 173 181 187 q 194 200 194 218 z m 214 106 q 214 123 206 132 q 197 141 180 141 q 163 141 154 132 q 145 123 145 106 q 145 88 154 80 q 163 71 180 71 q 197 71 206 80 q 214 88 214 106 z"},"_":{"x_min":0,"x_max":623,"ha":623,"o":"m 623 -265 l 0 -265 l 0 -166 l 623 -166 z"},"v":{"x_min":0,"x_max":542,"ha":542,"o":"m 425 448 q 425 433 417 425 q 410 417 395 417 q 380 417 372 425 q 364 433 364 448 q 364 464 372 472 q 380 479 395 479 q 410 479 417 472 q 425 464 425 448 z m 383 344 q 383 328 375 320 q 368 312 352 312 q 336 312 328 320 q 320 328 320 344 q 320 359 328 367 q 336 375 352 375 q 368 375 375 367 q 383 359 383 344 z m 343 239 q 343 223 335 216 q 327 208 312 208 q 296 208 288 216 q 280 223 280 239 q 280 254 288 262 q 296 270 312 270 q 327 270 335 262 q 343 254 343 239 z m 529 420 l 290 -44 l 274 -15 l 226 -50 l 206 -18 l 257 18 l 227 71 l 173 37 l 153 72 l 208 102 l 173 166 l 120 133 l 100 166 l 156 198 l 121 259 l 66 230 l 46 262 l 102 292 l 62 366 l 3 335 l -12 368 l 181 468 l 311 94 l 460 451 z"},"O":{"x_min":0,"x_max":769,"ha":769,"o":"m 719 417 q 719 340 697 272 q 675 205 630 146 q 582 81 520 49 q 459 17 384 17 q 310 17 248 49 q 187 81 138 146 q 94 204 72 272 q 50 341 50 417 q 50 494 72 561 q 93 628 136 685 q 184 747 245 778 q 306 809 380 809 q 455 809 517 778 q 579 747 628 685 q 673 628 696 561 q 719 494 719 417 z m 614 372 q 614 378 614 385 q 614 391 613 398 l 537 393 l 528 431 l 606 443 q 600 476 588 504 q 577 532 560 556 l 495 478 l 466 501 l 523 596 q 495 620 461 632 q 427 644 385 643 l 415 526 l 380 514 l 339 633 q 302 620 272 594 q 242 568 217 531 l 296 442 l 268 409 l 193 486 q 177 450 170 416 q 163 381 164 350 l 164 332 l 250 326 l 250 283 l 168 288 q 171 264 179 239 q 188 215 200 190 l 267 250 l 294 226 l 226 153 q 247 126 272 109 q 297 91 327 82 l 338 178 l 373 173 l 370 75 l 375 75 q 406 75 436 84 q 465 94 494 114 l 438 223 l 471 243 l 528 146 q 546 166 560 187 q 574 208 583 230 l 502 301 l 523 322 l 599 278 q 606 298 610 322 q 614 345 614 372 z"},"(":{"x_min":0,"x_max":561,"ha":561,"o":"m 458 14 l 295 -106 q 229 16 195 143 q 162 271 162 404 q 162 474 180 551 q 198 628 235 712 q 274 800 320 864 q 366 928 418 967 l 458 935 q 423 896 397 844 q 370 792 351 727 q 334 668 326 610 q 317 552 317 494 q 317 396 353 276 q 388 156 458 14 z m 283 338 q 283 354 274 363 q 265 372 248 372 q 230 372 222 363 q 213 354 213 336 q 213 323 223 312 q 233 302 247 302 q 265 302 274 311 q 283 320 283 338 z m 320 212 q 320 230 307 244 q 293 257 274 257 q 256 257 243 244 q 230 230 230 212 q 230 194 244 181 q 257 168 275 168 q 293 168 307 181 q 320 195 320 212 z m 348 88 q 348 105 339 114 q 331 122 313 122 q 296 122 287 113 q 278 104 278 86 q 278 69 287 61 q 296 53 312 53 q 331 53 339 62 q 348 71 348 88 z"},"C":{"x_min":0,"x_max":749,"ha":749,"o":"m 715 279 l 670 279 q 670 258 666 237 q 662 215 653 194 l 705 171 l 689 138 l 637 162 q 623 139 604 120 q 586 101 563 86 l 588 26 l 549 3 l 522 64 q 490 52 459 48 q 429 44 400 49 l 386 -21 l 343 -10 l 360 54 q 339 59 319 65 q 299 72 282 80 l 248 24 l 213 51 l 243 102 q 221 117 202 137 q 183 156 166 181 l 107 150 l 87 183 l 145 217 q 126 254 117 295 q 107 336 106 383 l 42 373 l 31 416 l 107 426 q 110 467 119 506 q 128 544 144 582 l 83 622 l 111 660 l 163 623 q 178 647 192 668 q 207 688 222 705 l 178 765 l 210 790 l 253 736 q 277 757 301 772 q 326 788 350 798 l 336 856 l 383 865 l 390 810 q 406 813 422 815 q 438 817 455 817 q 472 817 489 815 q 505 812 521 808 l 535 865 l 573 855 l 554 791 q 574 779 591 761 q 608 744 622 722 l 666 751 l 690 712 l 642 684 q 649 667 655 653 q 660 639 663 628 l 617 609 q 583 666 539 694 q 495 723 438 723 q 391 723 350 702 q 310 682 277 641 q 247 603 232 559 q 218 515 218 466 q 218 412 231 367 q 245 322 273 287 q 304 248 345 229 q 386 209 438 209 q 509 209 555 251 q 601 293 601 363 l 645 380 q 653 366 658 350 q 664 333 667 315 l 715 315 z"},"W":{"x_min":0,"x_max":1071,"ha":1071,"o":"m 1146 810 l 1056 675 l 979 703 l 781 27 l 745 11 l 542 516 l 290 -17 l 270 79 l 203 55 l 193 99 l 263 121 l 245 201 l 178 180 l 168 227 l 238 245 l 220 335 l 156 308 l 136 355 l 210 385 l 193 473 l 109 453 l 97 497 l 183 520 l 166 613 l 101 588 l 88 629 l 156 653 l 136 762 l 74 742 l 56 793 l 215 845 l 386 333 l 633 862 l 817 403 l 964 867 z m 785 312 l 613 719 l 581 655 l 757 215 z"},"A":{"x_min":0,"x_max":795,"ha":795,"o":"m 771 25 l 684 5 l 625 183 l 275 188 l 188 -50 l 0 80 l 368 833 l 503 845 z m 548 416 l 457 744 l 331 366 z m 597 269 l 568 354 l 306 289 l 290 250 z m 235 321 l 218 344 q 183 285 155 220 q 128 155 108 83 l 153 64 q 163 131 184 196 q 205 260 235 321 z"},"f":{"x_min":0,"x_max":345,"ha":345,"o":"m 482 800 l 429 698 q 413 705 401 709 q 390 713 383 713 q 353 713 327 694 q 301 675 278 638 q 262 613 251 581 q 239 548 230 511 l 368 534 l 365 466 l 220 451 q 220 448 219 437 q 218 427 215 408 l 353 422 l 348 359 l 210 350 l 176 -84 l 0 -109 l 26 25 l 137 36 l 147 345 l 60 339 l 45 389 l 148 400 l 151 443 l 66 436 l 61 484 l 151 499 q 153 577 161 634 q 169 692 184 727 q 208 784 253 813 q 297 842 363 842 q 393 842 423 832 q 453 821 482 800 z"},"Q":{"x_min":0,"x_max":799,"ha":799,"o":"m 861 59 l 811 1 l 654 189 q 643 176 633 165 q 622 153 611 144 l 731 -25 l 667 -71 l 553 101 q 511 75 467 62 q 422 49 375 49 q 305 49 246 75 q 188 102 141 154 q 95 204 73 265 q 50 326 50 397 q 50 475 76 542 q 103 610 155 668 q 208 729 274 759 q 339 789 416 789 q 487 789 546 763 q 605 737 652 685 q 697 635 720 574 q 743 514 743 442 q 743 390 730 342 q 718 293 693 248 z m 659 456 q 659 507 643 552 q 626 596 594 632 q 561 670 518 689 q 476 708 425 708 q 369 708 322 687 q 274 665 235 622 q 197 580 178 531 q 159 481 159 425 q 159 374 176 330 q 192 286 225 250 q 259 212 301 193 q 343 174 394 174 q 418 174 443 179 q 467 184 491 194 l 408 320 l 461 353 l 549 229 q 562 239 571 248 q 581 257 588 267 l 516 353 l 557 400 l 626 322 q 643 353 651 386 q 659 420 659 456 z m 427 551 q 379 502 338 449 q 297 395 264 335 l 235 336 q 262 397 300 457 q 338 517 386 576 z"},"w":{"x_min":0,"x_max":742,"ha":742,"o":"m 742 426 l 563 -17 l 486 -29 l 355 303 l 268 25 l 129 -44 l 117 5 l 175 31 l 166 61 l 107 35 l 96 79 l 148 100 l 139 127 l 87 108 l 76 148 l 124 168 l 114 196 l 69 177 l 0 422 l 81 459 l 222 113 l 336 426 l 470 462 l 542 88 l 669 458 z m 422 -55 q 422 -80 404 -98 q 386 -116 361 -116 q 336 -116 319 -98 q 301 -80 301 -55 q 301 -30 319 -13 q 336 5 361 5 q 386 5 404 -13 q 422 -30 422 -55 z"},"-":{"x_min":0,"x_max":491,"ha":491,"o":"m 415 201 l 302 181 l 292 228 l 263 225 l 270 176 l 239 170 l 228 218 l 200 215 l 208 164 l 176 159 l 168 210 l 134 206 l 142 153 l 104 147 l 76 316 l 413 288 z"},"E":{"x_min":0,"x_max":606,"ha":606,"o":"m 426 660 l 411 531 l 297 559 l 335 638 z m 594 628 l 516 605 q 512 657 494 691 q 476 725 442 742 q 424 750 384 758 q 344 766 282 771 l 244 448 l 494 461 l 431 321 l 232 364 l 188 37 l 371 35 l 435 128 l 537 134 l 540 -21 l 69 5 l 96 515 l 162 511 l 172 553 l 97 554 l 101 613 l 172 608 l 180 660 l 104 660 l 106 718 l 177 712 l 187 757 l 108 761 l 113 850 q 162 846 210 843 q 259 839 308 836 q 366 829 412 816 q 457 803 489 784 q 532 758 558 719 q 584 680 594 628 z"},"s":{"x_min":0,"x_max":440,"ha":440,"o":"m 396 375 q 396 334 378 315 q 361 295 326 295 q 294 295 278 307 q 262 319 262 343 q 262 354 269 364 q 275 374 288 380 l 302 370 q 298 366 296 363 q 294 359 294 355 q 294 346 300 341 q 306 336 317 336 q 333 336 340 344 q 348 352 348 368 q 348 380 341 391 q 334 401 321 408 q 311 414 299 417 q 286 420 271 420 q 253 420 238 415 q 223 411 210 401 q 196 391 189 377 q 182 363 182 345 q 182 328 195 312 q 208 295 234 279 q 280 250 304 235 q 328 220 330 218 q 356 196 369 171 q 381 145 381 114 q 381 73 366 40 q 351 7 319 -18 q 290 -40 254 -52 q 218 -63 176 -63 q 148 -63 123 -57 q 97 -50 73 -37 q 49 -24 31 -5 q 12 14 0 39 l 36 72 q 59 30 91 10 q 124 -11 167 -11 q 205 -11 230 12 q 254 35 254 72 q 254 97 243 120 q 232 143 210 165 q 189 183 168 201 q 147 219 126 237 q 104 260 93 284 q 82 309 82 335 q 82 368 96 394 q 110 420 138 439 q 162 457 191 464 q 221 472 255 472 q 284 472 308 467 q 331 462 349 452 q 373 439 385 420 q 396 400 396 375 z m 134 153 q 134 128 117 111 q 99 94 75 94 q 50 94 33 111 q 15 129 15 153 q 15 178 33 195 q 50 213 75 213 q 99 213 117 195 q 134 178 134 153 z"},">":{"x_min":0,"x_max":507,"ha":507,"o":"m 393 297 l 108 121 l 54 198 l 267 374 l 57 531 l 109 594 l 393 452 z m 353 427 q 353 443 341 455 q 330 466 314 466 q 298 466 287 455 q 275 443 275 427 q 275 412 287 400 q 298 389 314 389 q 330 389 341 400 q 353 412 353 427 z m 344 319 q 344 334 333 346 q 321 358 306 358 q 290 358 278 346 q 267 334 267 319 q 267 303 278 292 q 290 280 306 280 q 321 280 333 292 q 344 303 344 319 z"},"l":{"x_min":0,"x_max":334,"ha":334,"o":"m 309 836 l 209 0 l 55 15 l 62 60 l 122 51 l 125 141 l 56 145 l 60 186 l 125 185 l 126 270 l 55 273 l 60 309 l 127 309 l 128 403 l 51 408 l 56 457 l 129 443 l 129 523 l 56 532 l 62 572 l 131 573 l 132 658 l 52 662 l 61 708 l 132 700 l 134 780 l 50 786 l 56 836 z"},"8":{"x_min":0,"x_max":642,"ha":642,"o":"m 611 250 q 611 193 590 145 q 568 97 525 59 q 482 21 434 1 q 385 -19 328 -19 q 271 -19 222 1 q 173 21 130 59 q 87 97 66 145 q 45 193 45 250 q 45 322 82 383 q 119 445 182 481 q 137 511 114 551 q 91 591 91 642 q 91 685 108 721 q 125 757 159 787 q 192 815 230 829 q 269 842 312 842 q 357 842 395 828 q 434 814 466 787 q 501 757 518 721 q 535 685 535 642 q 535 595 516 557 q 497 519 458 490 q 527 456 569 391 q 611 327 611 250 z m 430 737 q 396 770 356 785 q 317 800 274 800 l 262 800 l 229 547 q 245 529 267 520 q 290 510 319 510 q 333 510 345 513 q 358 516 369 522 z m 460 304 l 398 290 l 389 320 l 451 345 q 443 371 429 392 q 415 414 394 431 l 359 350 l 327 366 l 360 451 q 346 458 330 462 q 314 466 296 466 q 287 466 277 465 q 267 463 257 460 l 277 383 l 237 378 l 219 445 q 187 425 167 396 q 146 366 137 326 l 196 331 l 198 292 l 134 287 q 134 265 139 245 q 144 225 152 208 l 201 245 l 225 217 l 177 168 q 197 146 220 132 q 243 119 268 114 l 269 190 l 311 190 l 312 113 q 338 115 362 127 q 386 138 408 159 l 366 210 l 384 233 l 429 186 q 445 208 452 238 q 460 267 460 304 z"},"\\":{"x_min":0,"x_max":663,"ha":663,"o":"m 652 -36 l 507 -106 l 492 -76 l 543 -50 l 515 3 l 462 -24 l 447 10 l 499 35 l 470 88 l 415 64 l 397 97 l 450 125 l 421 181 l 368 156 l 350 183 l 405 210 l 373 271 l 317 243 l 303 273 l 354 306 l 315 378 l 263 348 l 248 378 l 299 408 l 264 476 l 213 441 l 196 471 l 247 509 l 213 569 l 163 536 l 144 572 l 197 603 l 155 680 l 104 649 l 81 682 l 136 717 l 96 790 l 42 755 l 21 798 l 244 935 z"},"e":{"x_min":0,"x_max":597,"ha":597,"o":"m 566 37 q 554 25 544 15 q 534 6 527 0 l 563 -55 l 529 -75 l 492 -29 q 473 -41 451 -49 q 429 -57 404 -60 l 403 -117 l 359 -114 l 363 -61 q 340 -61 315 -56 q 290 -52 262 -42 l 234 -101 l 190 -77 l 220 -22 q 196 -9 177 8 q 157 25 142 47 l 89 14 l 67 49 l 125 79 q 113 102 107 127 q 101 151 99 177 l 46 164 l 31 207 l 99 222 q 101 250 107 271 q 113 293 122 311 l 75 339 l 97 376 l 144 344 q 156 359 170 371 q 185 383 201 393 l 161 451 l 205 472 l 237 410 q 252 415 265 418 q 278 421 288 422 l 301 486 l 335 476 l 327 425 q 346 425 364 420 q 381 415 397 405 l 446 453 l 473 430 l 427 380 q 438 370 447 356 q 457 341 464 324 l 521 343 l 531 307 l 476 288 q 479 277 482 264 q 485 251 487 237 l 260 197 l 260 192 q 260 156 268 125 q 275 93 291 65 q 310 31 335 14 q 361 -2 394 -2 q 427 -2 463 15 q 500 33 541 69 z m 366 277 q 364 298 350 309 q 336 320 311 320 q 279 320 251 301 q 224 282 214 252 z"},"b":{"x_min":0,"x_max":599,"ha":599,"o":"m 562 213 q 562 163 547 121 q 533 80 504 48 q 474 15 434 -2 q 394 -19 344 -19 q 306 -19 275 -7 q 245 5 222 29 q 200 53 189 84 q 178 114 178 153 q 178 184 188 210 q 197 236 215 258 q 234 281 259 293 q 284 304 314 304 q 358 304 390 279 q 421 253 421 209 q 421 193 416 179 q 411 166 402 155 q 393 143 379 137 q 366 131 350 131 q 326 131 313 142 q 300 153 297 175 q 302 171 307 169 q 312 167 319 167 q 336 167 345 176 q 353 185 353 202 q 353 220 343 229 q 332 238 312 238 q 292 238 278 230 q 263 223 252 208 q 243 194 238 177 q 233 161 233 141 q 233 96 266 69 q 299 42 344 42 q 373 42 396 54 q 420 66 438 91 q 454 114 462 140 q 470 167 470 197 q 470 233 460 262 q 450 292 430 314 q 409 338 380 351 q 352 363 316 363 q 285 363 259 350 q 232 338 209 313 q 188 291 176 263 q 163 236 159 205 l 132 -6 l 62 -21 l 67 548 l 126 556 l 127 588 l 66 586 l 66 625 l 128 633 l 126 672 l 66 665 l 64 699 l 128 710 l 131 750 l 64 739 l 64 793 l 277 831 l 186 339 q 210 391 259 423 q 309 455 365 455 q 413 455 450 436 q 488 417 515 380 q 539 346 550 304 q 562 263 562 213 z"},"%":{"x_min":0,"x_max":1011,"ha":1011,"o":"m 434 652 q 434 570 378 510 q 322 451 242 451 q 161 451 105 510 q 50 570 50 652 q 50 733 105 793 q 161 853 242 853 q 322 853 378 793 q 434 733 434 652 z m 744 825 l 336 -59 l 167 37 l 219 126 l 277 91 l 296 129 l 242 163 l 268 209 l 319 178 l 339 210 l 289 245 l 316 292 l 361 263 l 381 295 l 336 327 l 653 867 z m 955 244 l 906 233 q 910 221 911 208 q 913 195 913 182 q 913 165 910 148 q 907 131 901 113 l 939 100 l 924 59 l 883 81 q 868 57 847 40 q 826 23 799 12 l 810 -45 l 764 -47 l 756 1 q 729 1 707 4 q 686 7 670 14 l 653 -37 l 602 -24 l 633 35 q 613 49 599 67 q 584 86 574 109 l 535 96 l 519 136 l 562 150 q 561 155 560 163 q 560 171 560 182 q 560 199 562 215 q 565 232 571 247 l 532 257 l 540 297 l 587 280 q 603 304 624 321 q 645 338 670 349 l 649 406 l 687 421 l 711 360 q 719 361 725 362 q 731 363 736 363 q 750 363 764 360 q 778 358 791 353 l 817 411 l 858 391 l 829 336 q 848 324 864 307 q 880 290 893 268 l 950 285 z m 346 659 q 346 677 342 693 q 338 709 329 725 l 296 688 l 267 710 l 302 755 q 285 767 268 773 q 250 780 232 780 q 227 780 219 779 q 212 778 202 775 l 225 705 l 192 693 l 167 760 q 141 741 127 716 q 114 690 114 659 q 114 652 116 643 q 117 634 120 623 l 178 649 l 197 621 l 139 586 q 156 563 178 551 q 201 539 228 539 l 222 589 l 255 596 l 267 544 q 288 552 303 565 q 319 578 329 596 l 287 623 l 304 652 l 344 633 q 345 636 346 643 q 346 650 346 659 z m 856 193 q 856 236 827 268 q 799 301 756 301 q 736 301 718 292 q 700 284 686 267 q 672 251 665 233 q 658 214 658 193 q 658 171 665 154 q 672 136 686 121 q 700 104 718 96 q 736 88 756 88 q 798 88 827 120 q 856 151 856 193 z"},"m":{"x_min":0,"x_max":799,"ha":799,"o":"m 761 2 l 562 -20 l 566 226 q 567 278 555 304 q 544 331 521 331 q 507 331 492 313 q 478 296 462 261 q 451 238 444 214 q 436 190 430 166 q 428 186 425 207 q 422 228 420 248 q 416 274 409 293 q 402 312 393 326 q 381 343 363 352 q 346 360 322 360 q 289 360 262 334 q 235 309 215 257 l 220 -2 l 44 10 l 104 482 l 206 466 l 210 366 q 240 403 272 422 q 305 441 340 441 q 374 441 401 428 q 427 415 446 388 q 473 417 501 432 q 529 447 557 447 q 588 447 614 430 q 641 414 663 380 q 679 355 691 325 q 703 294 711 258 l 649 240 l 657 202 l 720 215 l 725 173 l 663 163 l 672 121 l 737 132 l 745 89 l 675 86 l 682 42 l 751 49 z m 491 75 q 491 48 473 29 q 455 11 427 11 q 400 11 382 29 q 363 48 363 75 q 363 102 382 120 q 400 138 427 138 q 455 138 473 120 q 491 102 491 75 z"},"#":{"x_min":0,"x_max":586,"ha":586,"o":"m 576 278 l 450 278 l 450 11 l 368 27 l 368 248 l 226 248 l 226 27 l 144 11 l 144 278 l 18 278 l 18 320 l 145 320 l 145 537 l 18 537 l 18 579 l 144 579 l 119 829 l 226 830 l 226 609 l 368 609 l 368 830 l 475 829 l 450 579 l 576 579 l 576 537 l 448 537 l 448 320 l 576 320 z m 410 517 q 410 534 398 546 q 386 559 369 559 q 352 559 340 546 q 328 534 328 517 q 328 501 340 488 q 352 476 369 476 q 386 476 398 488 q 410 501 410 517 z m 267 517 q 267 534 254 546 q 242 559 226 559 q 208 559 197 546 q 185 534 185 517 q 185 501 197 488 q 208 476 226 476 q 242 476 254 488 q 267 501 267 517 z m 410 336 q 410 353 398 365 q 386 378 369 378 q 352 378 340 365 q 328 353 328 336 q 328 320 340 307 q 352 295 369 295 q 386 295 398 307 q 410 320 410 336 z m 267 336 q 267 353 254 365 q 242 378 226 378 q 208 378 197 365 q 185 353 185 336 q 185 320 197 307 q 208 295 226 295 q 242 295 254 307 q 267 320 267 336 z"},",":{"x_min":0,"x_max":331,"ha":331,"o":"m 283 112 l 245 96 q 248 86 248 73 q 248 60 245 42 l 280 34 l 274 -7 l 237 5 q 230 -17 220 -37 q 211 -56 200 -74 l 232 -104 l 203 -134 l 177 -102 q 170 -109 162 -117 q 154 -125 144 -133 l 114 -107 q 140 -86 152 -61 q 164 -35 164 -3 l 164 0 q 152 0 141 3 q 130 5 121 11 l 92 -24 l 61 5 l 100 34 q 93 42 90 55 q 87 68 88 86 l 46 99 l 61 136 l 101 116 q 108 128 118 136 q 128 145 142 150 l 133 181 l 178 187 l 181 153 q 195 152 208 146 q 220 140 230 128 l 265 151 z"},"n":{"x_min":0,"x_max":604,"ha":604,"o":"m 567 19 l 379 -14 q 383 135 384 190 q 386 244 386 258 q 386 303 371 326 q 356 349 327 349 q 299 349 268 323 q 238 298 205 248 l 190 -5 l 102 -17 l 50 431 l 217 466 l 209 326 q 246 374 286 399 q 327 423 371 423 q 430 423 467 379 q 504 335 522 247 z m 486 210 q 486 226 479 234 q 471 242 455 242 q 439 242 431 234 q 423 226 423 210 q 423 194 431 186 q 439 178 455 178 q 471 178 479 186 q 486 194 486 210 z m 504 91 q 504 108 492 119 q 480 131 464 131 q 443 131 433 121 q 423 111 423 91 q 423 71 433 61 q 443 51 464 51 q 480 51 492 63 q 504 74 504 91 z"},"h":{"x_min":0,"x_max":659,"ha":659,"o":"m 596 102 q 596 89 596 68 q 596 46 596 15 l 411 -15 q 431 69 440 138 q 450 208 450 264 q 450 289 447 312 q 444 336 438 358 q 431 390 418 406 q 406 422 390 422 q 361 422 331 407 q 301 392 268 361 l 255 -1 l 108 -29 l 99 10 l 163 19 l 158 83 l 94 74 l 87 108 l 156 116 l 150 196 l 86 188 l 81 223 l 147 229 l 141 312 l 81 303 l 72 340 l 137 349 l 132 416 l 74 404 l 66 446 l 128 453 l 121 548 l 67 539 l 61 577 l 119 588 l 111 683 l 61 672 l 52 711 l 107 724 l 102 790 l 49 771 l 37 815 l 287 876 l 270 434 q 307 461 344 475 q 380 489 417 489 q 475 489 514 452 q 554 415 574 342 q 585 301 591 241 q 596 181 596 102 z m 416 326 q 385 264 365 199 q 344 135 333 69 l 288 86 q 309 163 337 228 q 364 293 398 348 z"},"z":{"x_min":0,"x_max":564,"ha":564,"o":"m 577 364 q 577 346 568 338 q 560 329 542 329 q 525 329 516 338 q 507 346 507 364 q 507 381 516 390 q 525 398 542 398 q 560 398 568 390 q 577 381 577 364 z m 468 247 q 468 230 460 221 q 452 213 434 213 q 416 213 407 221 q 398 230 398 247 q 398 264 407 273 q 416 282 434 282 q 452 282 460 273 q 468 264 468 247 z m 504 446 l 129 21 l 471 42 l 462 -62 l 19 -40 l 245 375 l 29 363 l 63 468 z m 360 131 q 360 113 352 105 q 343 96 326 96 q 308 96 299 105 q 290 113 290 131 q 290 148 299 157 q 308 166 326 166 q 343 166 352 157 q 360 148 360 131 z m 336 410 l 296 426 q 287 364 268 307 q 250 249 222 194 l 237 175 q 269 225 293 284 q 318 343 336 410 z"},"B":{"x_min":0,"x_max":680,"ha":680,"o":"m 637 257 q 637 190 611 139 q 584 88 532 53 q 487 22 430 7 q 373 -8 302 -8 q 257 -8 208 -2 q 158 3 104 17 l 69 845 q 92 848 115 849 q 138 851 159 851 q 219 851 271 840 q 323 829 366 806 q 420 778 448 736 q 475 695 475 640 q 475 616 469 592 q 463 567 451 542 q 534 506 586 427 q 637 348 637 257 z m 338 521 l 316 771 q 310 778 294 785 q 278 792 253 798 l 217 447 q 258 460 288 479 q 319 498 338 521 z m 465 336 q 465 380 449 416 q 433 452 400 481 q 361 447 314 424 q 267 401 212 390 l 183 80 q 239 82 288 100 q 336 119 377 153 q 422 189 444 235 q 465 281 465 336 z m 576 263 q 576 280 567 289 q 559 297 541 297 q 523 297 515 289 q 506 280 506 263 q 506 245 515 237 q 523 228 541 228 q 559 228 567 237 q 576 245 576 263 z m 540 148 q 540 167 527 180 q 514 193 495 193 q 476 193 463 180 q 450 167 450 148 q 450 129 463 116 q 476 104 495 104 q 514 104 527 116 q 540 129 540 148 z m 430 74 q 430 91 421 100 q 413 108 395 108 q 378 108 369 100 q 360 91 360 74 q 360 56 369 47 q 378 39 395 39 q 413 39 421 47 q 430 56 430 74 z m 395 370 q 351 317 315 260 q 279 203 252 142 l 223 141 q 246 205 278 268 q 311 332 353 394 z"},"K":{"x_min":0,"x_max":689,"ha":689,"o":"m 486 406 q 486 389 477 380 q 468 371 451 371 q 433 371 424 380 q 415 389 415 406 q 415 423 424 432 q 433 441 451 441 q 468 441 477 432 q 486 423 486 406 z m 662 63 l 517 -40 l 226 438 l 238 17 l 69 -14 l 104 810 l 214 823 l 223 492 q 301 517 362 548 q 422 578 464 612 q 517 655 551 712 q 585 768 601 837 l 658 820 q 647 737 621 675 q 595 613 555 571 q 521 537 462 504 q 404 472 320 441 z m 556 316 q 556 299 547 290 q 539 282 521 282 q 504 282 495 290 q 486 299 486 316 q 486 334 495 343 q 504 352 521 352 q 539 352 547 343 q 556 334 556 316 z m 634 225 q 634 207 625 198 q 617 189 599 189 q 583 189 573 198 q 564 207 564 225 q 564 242 573 250 q 583 259 599 259 q 617 259 625 250 q 634 242 634 225 z m 714 131 q 714 113 706 105 q 697 96 679 96 q 662 96 653 105 q 645 113 645 131 q 645 148 653 157 q 662 166 679 166 q 697 166 706 157 q 714 148 714 131 z"},"R":{"x_min":0,"x_max":666,"ha":666,"o":"m 715 89 q 694 43 665 20 q 635 -2 599 -2 q 558 -2 517 25 q 476 52 434 107 l 269 322 l 209 306 l 193 -2 l 102 -18 l 69 850 l 119 851 l 121 789 l 213 781 l 222 841 l 271 837 l 265 773 l 333 756 l 363 819 l 405 799 l 376 740 q 400 731 418 717 q 436 702 448 684 l 496 718 l 528 682 l 466 641 q 474 623 477 600 q 479 577 476 549 l 546 524 l 526 481 l 466 503 q 461 484 451 465 q 441 446 426 427 l 473 385 l 443 346 l 390 386 l 365 373 l 521 125 q 529 112 540 100 q 551 88 565 78 q 582 66 596 61 q 611 55 625 55 q 645 55 663 65 q 681 76 698 97 z m 369 445 l 311 705 q 296 711 278 717 q 259 722 237 725 l 213 361 q 262 374 301 395 q 340 416 369 445 z"},"T":{"x_min":0,"x_max":652,"ha":652,"o":"m 685 810 l 674 732 q 642 738 610 741 q 579 744 548 744 q 510 744 470 739 q 431 734 391 725 l 438 2 l 217 31 l 271 719 l 238 719 q 185 718 145 724 q 104 729 78 743 q 42 761 24 794 q 6 827 6 875 l 6 887 l 39 898 q 41 844 80 817 q 119 790 195 790 q 259 790 385 809 q 511 828 575 828 q 609 828 637 823 q 665 818 685 810 z m 363 503 q 363 521 354 530 q 346 539 328 539 q 311 539 302 530 q 292 521 292 503 q 292 485 302 477 q 311 468 328 468 q 346 468 354 477 q 363 485 363 503 z m 371 358 q 371 376 358 389 q 345 403 327 403 q 308 403 295 389 q 282 376 282 358 q 282 339 295 326 q 308 312 327 312 q 345 312 358 326 q 371 339 371 358 z m 360 205 q 360 222 352 230 q 343 239 326 239 q 308 239 299 230 q 290 222 290 205 q 290 187 299 178 q 308 170 326 170 q 343 170 352 178 q 360 187 360 205 z"},"P":{"x_min":0,"x_max":689,"ha":689,"o":"m 665 588 q 665 495 605 431 q 545 366 453 366 q 393 366 352 394 q 312 421 290 476 l 258 -5 l 161 -31 l 151 398 l 72 389 l 63 473 l 148 484 l 146 571 l 63 564 l 59 652 l 144 657 l 142 742 l 54 731 l 55 820 q 182 828 258 832 q 334 835 359 835 q 427 835 481 822 q 534 808 573 781 q 619 749 642 701 q 665 652 665 588 z m 566 577 q 566 665 513 709 q 460 753 354 753 q 344 753 334 753 q 324 752 312 751 l 301 592 q 318 636 350 659 q 381 682 427 682 q 467 682 495 656 q 523 631 523 592 q 523 564 505 544 q 487 524 460 524 q 442 524 430 532 q 417 540 411 556 l 422 555 q 441 553 450 561 q 460 569 460 586 q 460 600 452 607 q 443 615 427 615 q 411 615 399 608 q 387 601 378 587 q 370 575 366 561 q 363 546 363 529 q 363 490 388 465 q 414 440 453 440 q 480 440 502 451 q 523 461 539 482 q 552 501 559 525 q 566 549 566 577 z"},"|":{"x_min":0,"x_max":418,"ha":418,"o":"m 265 -345 l 153 -345 l 153 901 l 265 901 z m 247 678 q 247 695 238 704 q 229 712 212 712 q 195 712 186 704 q 177 695 177 678 q 177 660 186 652 q 195 643 212 643 q 229 643 238 652 q 247 660 247 678 z"},"t":{"x_min":0,"x_max":406,"ha":406,"o":"m 375 416 l 368 365 l 270 358 l 263 299 l 368 296 l 348 227 l 254 233 l 218 -36 l 146 -49 l 137 242 l 49 248 l 63 303 l 136 302 l 133 348 l 40 340 l 19 416 l 131 416 l 126 586 l 306 606 l 279 416 z m 248 494 q 248 514 238 524 q 228 534 208 534 q 188 534 178 524 q 168 514 168 494 q 168 473 178 463 q 188 453 208 453 q 228 453 238 463 q 248 473 248 494 z m 230 374 q 230 390 223 397 q 215 405 200 405 q 184 405 176 397 q 168 390 168 374 q 168 358 176 350 q 184 343 200 343 q 215 343 223 350 q 230 358 230 374 z"},"M":{"x_min":0,"x_max":940,"ha":940,"o":"m 882 3 l 640 -24 l 659 522 l 404 94 l 186 358 q 168 277 147 214 q 127 151 104 104 q 74 43 31 -6 q -12 -55 -67 -92 l -87 -51 q -18 0 30 93 q 77 186 104 320 l 210 841 l 465 365 l 692 825 l 801 821 z m 410 274 l 234 578 l 209 448 l 381 223 z m 779 374 l 779 393 l 752 383 q 749 313 734 247 q 720 181 695 119 l 744 111 q 762 185 771 250 q 779 316 779 374 z"},"g":{"x_min":0,"x_max":596,"ha":596,"o":"m 540 462 l 536 421 l 479 423 l 475 383 l 532 378 l 528 327 l 464 334 l 465 292 l 523 283 l 520 238 l 459 243 l 457 198 l 516 190 q 496 -52 430 -173 q 364 -294 251 -294 q 212 -294 177 -279 q 143 -264 111 -234 q 82 -206 62 -172 q 42 -139 31 -99 l 66 -76 q 79 -101 95 -120 q 112 -140 131 -156 q 155 -175 178 -184 q 202 -193 226 -193 q 262 -193 290 -172 q 317 -151 336 -108 q 350 -78 358 -41 q 366 -3 369 42 q 344 25 315 18 q 287 10 255 10 q 164 10 98 74 q 32 139 32 230 q 32 322 98 386 q 164 451 255 451 q 292 451 326 440 q 359 429 388 408 l 391 482 z m 373 229 q 373 253 367 274 q 361 294 349 313 q 336 334 318 344 q 299 354 277 354 q 250 354 228 341 q 206 328 188 301 q 171 277 164 251 q 156 225 156 197 q 156 173 161 152 q 167 131 179 113 q 193 92 211 82 q 229 72 251 72 q 278 72 301 85 q 323 99 341 125 q 356 149 365 175 q 373 201 373 229 z m 327 218 q 327 193 309 175 q 291 157 265 157 q 241 157 223 175 q 206 193 206 218 q 206 242 224 260 q 242 278 265 278 q 290 278 308 260 q 327 243 327 218 z"},"j":{"x_min":0,"x_max":309,"ha":309,"o":"m 284 594 q 284 543 248 506 q 212 468 162 468 q 111 468 76 506 q 40 543 40 594 q 40 645 76 683 q 111 720 162 720 q 212 720 248 683 q 284 645 284 594 z m 248 224 q 248 99 232 8 q 217 -83 187 -139 q 148 -212 96 -249 q 44 -285 -22 -285 q -69 -285 -100 -269 q -131 -252 -146 -219 q -125 -230 -103 -236 q -82 -242 -61 -242 q -25 -242 0 -231 q 25 -221 40 -200 q 21 -208 3 -211 q -16 -215 -34 -215 q -72 -215 -105 -200 q -138 -185 -164 -153 l -136 -121 q -114 -143 -86 -154 q -59 -164 -25 -164 q 37 -164 67 -103 q 98 -42 98 80 q 98 89 98 100 q 98 110 97 122 l 138 126 l 133 175 l 94 166 l 88 208 l 129 218 l 125 263 l 82 255 q 82 263 80 274 q 78 285 75 301 l 119 311 l 112 358 l 67 346 q 67 349 64 362 q 62 375 57 400 l 239 438 q 243 378 245 325 q 248 271 248 224 z m 243 604 l 217 602 l 206 621 l 239 628 q 234 641 227 651 q 220 662 212 668 l 193 640 l 173 654 l 187 683 q 181 685 172 686 q 164 687 155 687 l 159 652 l 139 643 l 126 678 q 115 671 107 664 q 100 657 96 649 l 125 638 l 117 616 l 83 626 q 82 623 82 617 q 81 611 81 604 q 81 595 83 587 q 84 578 88 571 l 112 581 l 128 562 l 102 547 q 113 537 125 531 q 137 524 150 522 l 152 552 l 178 548 l 178 523 q 187 525 197 530 q 207 536 219 544 l 186 581 l 209 588 l 232 564 q 237 574 240 584 q 243 594 243 604 z"},"i":{"x_min":0,"x_max":309,"ha":309,"o":"m 259 563 l 247 534 l 205 556 q 198 547 189 542 q 181 536 171 534 l 181 494 l 147 489 l 139 531 q 131 532 124 536 q 116 541 109 546 l 77 516 l 55 542 l 92 569 q 87 579 87 589 q 86 599 88 611 l 45 638 l 61 665 l 101 637 q 107 645 115 650 q 122 655 132 658 l 124 715 l 155 715 l 157 662 q 167 660 176 657 q 185 653 193 648 l 227 675 l 250 653 l 210 626 q 214 621 216 610 q 217 599 217 582 z m 243 -56 l 37 -30 l 113 446 l 205 446 z m 185 196 q 185 213 176 222 q 167 230 150 230 q 132 230 123 222 q 114 213 114 196 q 114 178 123 169 q 132 161 150 161 q 167 161 176 169 q 185 178 185 196 z m 185 63 q 185 82 171 95 q 158 108 139 108 q 121 108 108 95 q 95 82 95 63 q 95 45 108 32 q 121 19 139 19 q 158 19 171 32 q 185 45 185 63 z"},"y":{"x_min":0,"x_max":593,"ha":593,"o":"m 531 156 q 531 -95 461 -220 q 391 -346 250 -346 q 186 -346 131 -329 q 76 -311 31 -275 l 54 -233 q 86 -260 127 -274 q 168 -287 217 -287 q 234 -287 251 -285 q 267 -284 283 -279 q 275 -280 267 -281 q 260 -281 252 -281 q 215 -281 182 -270 q 148 -258 119 -234 q 87 -209 71 -179 q 55 -148 54 -112 q 74 -139 92 -159 q 110 -179 126 -189 q 148 -204 173 -211 q 198 -218 228 -218 q 311 -218 355 -126 q 400 -35 408 148 q 393 124 378 105 q 363 87 348 75 l 365 31 l 335 6 l 316 56 q 301 49 284 46 q 267 44 247 46 l 233 -8 l 188 2 l 209 54 q 188 61 169 75 q 150 89 136 111 l 94 79 l 61 113 l 119 146 q 111 164 106 184 q 101 205 99 227 l 51 209 l 36 248 l 95 265 q 94 270 94 276 q 93 282 93 288 q 93 294 94 308 q 96 321 97 341 l 31 341 l 36 388 l 101 378 l 106 417 l 188 423 q 178 383 173 348 q 167 312 167 282 q 167 250 174 222 q 180 195 192 173 q 208 146 230 133 q 252 120 283 120 q 341 120 370 158 q 399 196 399 273 q 399 299 395 329 q 391 358 383 391 l 515 421 q 522 348 527 282 q 531 216 531 156 z"},"@":{"x_min":0,"x_max":817,"ha":817,"o":"m 790 443 q 745 404 696 371 q 646 338 591 312 q 529 281 472 266 q 415 250 363 250 q 332 250 305 258 q 279 265 257 279 q 231 296 218 319 q 205 341 205 371 q 205 403 222 433 q 240 463 274 491 q 301 514 333 530 q 365 545 401 556 q 394 577 379 587 q 364 598 341 598 q 310 598 282 584 q 254 569 229 541 l 198 573 q 231 624 280 650 q 329 675 393 675 q 441 675 479 649 q 517 624 543 573 q 564 534 576 487 q 588 439 592 384 q 630 402 662 423 q 694 444 719 467 q 709 591 618 676 q 526 761 403 761 q 272 761 179 668 q 86 574 86 443 q 86 312 179 219 q 273 126 404 126 l 404 57 q 244 57 131 171 q 18 284 18 443 q 18 603 131 717 q 244 830 404 830 q 563 830 677 717 q 790 603 790 443 z m 695 189 l 647 142 l 606 201 l 640 233 z m 615 119 l 557 87 l 532 153 l 573 175 z m 516 72 l 458 61 l 447 128 l 492 139 z m 507 491 q 507 503 501 510 q 495 516 482 516 q 470 516 464 510 q 458 503 458 491 q 458 478 464 472 q 470 466 482 466 q 495 466 501 472 q 507 478 507 491 z m 443 334 l 443 340 q 443 382 438 423 q 432 463 418 502 q 385 492 358 481 q 331 470 311 458 l 350 312 q 378 312 401 318 q 425 323 443 334 z m 549 395 q 549 410 538 421 q 527 433 512 433 q 497 433 486 421 q 475 410 475 395 q 475 380 486 369 q 497 358 512 358 q 527 358 538 369 q 549 380 549 395 z"},".":{"x_min":0,"x_max":331,"ha":331,"o":"m 254 71 q 254 34 229 8 q 203 -19 166 -19 q 129 -19 103 8 q 76 34 76 71 q 76 108 102 135 q 128 162 166 162 q 203 162 229 135 q 254 108 254 71 z m 197 83 q 197 101 185 115 q 173 128 157 128 q 141 128 129 115 q 117 101 117 83 q 117 66 129 52 q 140 39 157 39 q 174 39 186 52 q 197 66 197 83 z"},"p":{"x_min":0,"x_max":611,"ha":611,"o":"m 567 223 q 567 177 553 139 q 540 100 514 68 q 485 34 449 17 q 413 0 368 0 q 331 0 300 9 q 270 18 247 37 q 223 56 210 84 q 198 113 198 150 q 198 216 234 258 q 270 299 335 299 q 376 299 404 273 q 431 247 431 206 q 431 190 427 177 q 423 165 416 153 q 408 141 396 135 q 384 129 369 129 q 358 129 348 133 q 338 136 329 142 q 348 143 362 157 q 375 171 375 190 q 375 213 364 224 q 352 235 329 235 q 314 235 302 228 q 290 221 281 206 q 274 194 271 180 q 267 166 267 150 q 267 109 294 82 q 322 55 363 55 q 390 55 411 66 q 433 78 448 102 q 462 123 470 147 q 477 171 477 200 q 477 266 437 307 q 397 348 331 348 q 290 348 260 331 q 229 314 208 282 q 189 254 180 219 q 171 183 171 140 q 171 137 173 86 q 175 35 177 -64 l 125 -72 l 124 -102 l 178 -100 l 178 -136 l 122 -142 l 125 -177 l 178 -170 l 180 -202 l 122 -212 l 121 -247 l 180 -237 l 181 -275 l 12 -319 l 96 452 l 171 441 l 180 322 q 208 374 262 404 q 315 434 375 434 q 420 434 456 418 q 491 403 517 373 q 542 343 554 306 q 567 269 567 223 z"},"X":{"x_min":0,"x_max":801,"ha":801,"o":"m 750 441 q 750 416 732 398 q 714 380 689 380 q 664 380 646 398 q 628 416 628 441 q 628 465 646 483 q 665 501 689 501 q 714 501 732 483 q 750 465 750 441 z m 781 24 l 718 -44 l 416 311 q 378 236 352 190 q 325 144 312 124 q 271 67 230 39 q 188 10 146 10 q 102 10 59 41 q 16 72 -26 134 l -1 161 q 24 125 50 108 q 76 90 104 90 q 138 90 176 119 q 213 148 254 206 q 267 223 292 267 q 317 311 356 380 l 258 497 l 301 534 l 268 573 l 225 536 l 186 581 l 233 618 l 201 657 l 156 617 l 124 654 l 173 693 l 148 731 l 94 688 l 60 728 l 233 850 l 438 546 l 598 871 l 682 808 l 492 459 z m 193 363 q 193 338 175 320 q 157 302 132 302 q 107 302 89 320 q 71 338 71 363 q 71 387 90 405 q 108 423 132 423 q 156 423 175 405 q 193 387 193 363 z"},"*":{"x_min":0,"x_max":501,"ha":501,"o":"m 464 745 l 385 718 q 386 714 386 711 q 386 707 386 703 q 386 682 380 663 q 373 645 359 628 l 408 551 l 341 514 l 307 591 q 297 586 286 585 q 275 583 263 583 q 250 583 239 585 q 227 588 215 593 l 153 511 l 95 557 l 166 630 q 152 645 146 666 q 139 687 141 714 l 62 737 l 87 796 l 159 768 q 173 789 191 802 q 210 815 234 821 l 228 915 l 302 915 l 296 820 q 319 814 336 801 q 354 789 368 769 l 436 800 z"},"Y":{"x_min":0,"x_max":693,"ha":693,"o":"m 81 705 q 81 689 73 681 q 65 673 49 673 q 33 673 25 681 q 17 689 17 705 q 17 721 25 729 q 33 737 49 737 q 65 737 73 729 q 81 721 81 705 z m 132 609 q 132 593 124 585 q 116 577 100 577 q 84 577 76 585 q 67 593 67 609 q 67 625 76 634 q 84 642 100 642 q 116 642 124 634 q 132 625 132 609 z m 189 509 q 189 492 181 484 q 173 476 157 476 q 141 476 133 484 q 125 492 125 509 q 125 524 133 533 q 141 541 157 541 q 173 541 181 533 q 189 524 189 509 z m 736 865 q 689 858 651 832 q 613 805 584 757 q 611 771 633 778 q 654 784 670 784 q 678 784 689 783 q 700 782 714 780 l 702 740 l 693 740 q 617 740 556 677 q 495 614 448 484 q 434 446 427 424 q 420 401 420 396 q 420 396 415 298 q 411 200 401 3 l 317 -14 l 290 430 l 81 785 l 253 851 l 390 495 q 424 586 453 651 q 481 715 506 753 q 552 826 607 862 q 663 898 727 898 z m 250 409 q 250 393 241 384 q 233 376 217 376 q 201 376 193 384 q 185 393 185 409 q 185 425 193 433 q 201 441 217 441 q 233 441 241 433 q 250 425 250 409 z"},"c":{"x_min":0,"x_max":523,"ha":523,"o":"m 499 104 q 452 42 396 12 q 340 -19 274 -19 q 172 -19 108 44 q 44 106 44 208 q 44 308 117 382 q 190 455 290 455 q 320 455 345 450 q 370 445 390 436 q 417 423 430 403 q 443 384 443 358 q 443 334 424 311 q 404 287 364 264 l 343 284 q 353 294 360 305 q 366 316 369 328 l 311 343 l 317 364 l 370 356 q 369 369 362 378 q 354 388 342 396 q 331 402 319 405 q 307 408 294 408 q 287 408 280 407 q 272 406 264 405 l 275 329 l 253 324 l 233 390 q 210 380 194 361 q 178 342 168 315 l 235 295 l 226 270 l 159 287 q 155 275 153 260 q 151 245 151 225 q 151 215 152 207 q 153 198 155 190 l 210 209 l 226 181 l 162 158 q 166 144 175 128 q 185 113 198 96 l 243 131 l 264 113 l 226 76 q 242 63 262 57 q 282 51 308 51 l 312 108 l 338 108 l 343 52 q 360 54 377 59 q 394 65 411 75 l 394 124 l 416 132 l 435 92 q 443 99 452 108 q 461 117 471 128 z"},"!":{"x_min":0,"x_max":393,"ha":393,"o":"m 292 846 l 232 234 l 157 226 l 121 589 l 167 598 l 167 629 l 119 618 l 114 648 l 164 660 l 162 692 l 112 680 l 108 714 l 162 728 l 159 757 l 106 744 l 100 800 z m 280 71 q 280 34 255 8 q 229 -19 192 -19 q 155 -19 129 8 q 102 34 102 71 q 102 108 128 135 q 155 162 192 162 q 229 162 255 135 q 280 108 280 71 z m 223 83 q 223 101 211 115 q 200 128 183 128 q 167 128 155 115 q 144 101 144 83 q 144 66 155 52 q 166 39 183 39 q 200 39 212 52 q 223 66 223 83 z"},"/":{"x_min":0,"x_max":663,"ha":663,"o":"m 685 865 l 278 -106 l 55 32 l 75 74 l 129 39 l 170 113 l 114 148 l 137 181 l 188 150 l 230 227 l 177 258 l 197 292 l 247 260 l 280 321 l 229 359 l 247 389 l 297 354 l 333 422 l 282 452 l 296 482 l 349 452 l 388 523 l 336 557 l 352 587 l 406 559 l 438 620 l 384 647 l 401 674 l 455 649 l 484 705 l 431 732 l 448 765 l 503 740 l 532 795 l 481 820 l 496 853 l 548 826 l 577 880 l 526 905 l 541 935 z"},"[":{"x_min":0,"x_max":561,"ha":561,"o":"m 561 877 l 521 769 l 336 816 l 301 -1 l 492 21 l 481 -81 l 220 -95 l 124 945 z m 138 308 q 138 290 130 281 q 121 273 104 273 q 86 273 78 281 q 69 290 69 308 q 69 325 78 334 q 86 343 104 343 q 121 343 130 334 q 138 325 138 308 z m 146 194 q 146 176 137 168 q 128 159 111 159 q 94 159 85 168 q 76 176 76 194 q 76 212 85 221 q 94 229 111 229 q 128 229 137 221 q 146 212 146 194 z m 158 74 q 158 56 150 47 q 141 39 124 39 q 106 39 97 47 q 88 56 88 74 q 88 91 97 100 q 106 108 124 108 q 141 108 150 100 q 158 91 158 74 z m 173 -49 q 173 -66 165 -75 q 156 -83 138 -83 q 121 -83 112 -75 q 104 -66 104 -49 q 104 -32 112 -23 q 121 -14 138 -14 q 156 -14 165 -23 q 173 -32 173 -49 z m 317 862 l 301 885 q 267 830 239 765 q 210 700 189 624 l 234 605 q 245 673 266 737 q 287 801 317 862 z"},"6":{"x_min":0,"x_max":623,"ha":623,"o":"m 602 233 q 602 174 581 127 q 561 80 519 45 q 479 13 430 -4 q 380 -20 320 -20 q 256 -20 205 5 q 153 30 114 80 q 79 125 61 182 q 44 238 44 304 q 44 392 72 474 q 99 557 154 636 q 205 709 272 766 q 339 824 421 866 l 507 712 q 429 680 364 635 q 300 591 249 534 q 190 468 161 396 q 132 325 132 248 q 132 209 144 176 q 155 142 178 113 q 203 81 234 65 q 265 50 303 50 q 384 50 432 101 q 479 151 479 233 q 479 262 472 287 q 464 312 448 333 q 431 355 408 367 q 385 378 356 378 q 315 378 288 354 q 262 330 262 289 q 262 260 274 246 q 286 232 311 232 q 327 232 338 245 q 349 257 349 274 q 349 281 347 287 q 346 292 341 297 q 367 290 380 273 q 393 255 393 228 q 393 212 386 198 q 379 185 365 174 q 353 164 338 159 q 324 155 307 155 q 282 155 262 164 q 242 174 227 193 q 212 211 205 233 q 198 255 198 280 q 198 321 212 354 q 227 386 254 412 q 281 437 316 449 q 350 461 390 461 q 438 461 476 444 q 514 427 544 393 q 573 360 587 320 q 602 280 602 233 z"},"r":{"x_min":0,"x_max":517,"ha":517,"o":"m 517 378 l 470 360 q 470 356 470 349 q 471 341 471 336 q 471 324 468 313 q 465 302 460 292 l 502 263 l 476 237 l 438 267 q 431 259 421 253 q 411 247 398 240 l 374 274 q 381 284 385 294 q 389 304 389 313 q 389 333 375 344 q 361 354 334 354 q 304 354 270 322 q 235 289 197 225 l 205 -44 l 37 -19 l 113 441 l 190 457 l 194 312 q 210 334 225 352 q 239 369 253 381 l 232 429 l 265 446 l 283 405 q 300 416 318 423 q 335 430 354 433 l 355 481 l 391 478 l 384 434 q 411 432 430 421 q 450 410 460 390 l 504 414 z m 167 178 q 167 193 159 201 q 151 209 134 209 q 119 209 111 201 q 104 193 104 178 q 104 163 111 155 q 119 147 134 147 q 151 147 159 155 q 167 163 167 178 z m 164 59 q 164 76 153 88 q 141 100 125 100 q 108 100 96 88 q 84 76 84 59 q 84 39 94 29 q 104 19 125 19 q 145 19 155 29 q 164 39 164 59 z"},"2":{"x_min":0,"x_max":559,"ha":559,"o":"m 552 0 l 6 35 q 18 97 37 154 q 57 210 83 259 q 106 301 142 349 q 178 396 226 450 q 286 517 316 579 q 346 641 346 698 q 346 719 338 737 q 329 754 312 769 q 297 782 278 789 q 259 796 237 796 q 208 796 185 790 q 162 783 143 770 q 122 754 112 733 q 101 712 101 686 q 101 672 105 660 q 108 647 114 637 q 122 624 133 618 q 143 612 156 612 q 183 612 196 625 q 209 637 209 662 q 209 668 208 676 q 206 683 203 690 q 232 683 246 665 q 260 648 260 621 q 260 601 251 584 q 242 568 223 557 q 207 547 188 542 q 169 537 147 537 q 92 537 57 572 q 22 607 22 663 q 22 705 41 739 q 60 773 97 798 q 130 820 169 831 q 208 841 253 841 q 311 841 355 827 q 400 812 433 785 q 468 754 486 711 q 503 668 503 612 q 503 571 482 529 q 460 487 418 443 q 376 406 334 369 q 292 333 250 295 q 200 250 169 209 q 138 168 126 132 l 517 205 z m 461 652 q 461 668 452 677 q 443 687 426 687 q 409 687 400 677 q 391 668 391 652 q 391 634 400 625 q 409 617 426 617 q 443 617 452 625 q 461 634 461 652 z m 438 542 q 438 561 426 574 q 413 587 394 587 q 375 587 362 574 q 349 561 349 542 q 349 523 362 510 q 375 497 394 497 q 413 497 426 510 q 438 523 438 542 z m 355 452 q 355 470 347 479 q 338 487 320 487 q 303 487 294 479 q 285 470 285 452 q 285 435 294 426 q 303 417 320 417 q 338 417 347 426 q 355 435 355 452 z"},"{":{"x_min":0,"x_max":561,"ha":561,"o":"m 157 416 q 157 390 137 370 q 118 350 91 350 q 64 350 44 370 q 25 390 25 416 q 25 443 44 463 q 64 482 91 482 q 118 482 137 463 q 157 443 157 416 z m 507 800 q 470 796 429 791 q 388 786 343 779 q 317 768 303 691 q 290 615 289 472 l 223 425 l 289 391 q 290 292 292 206 q 293 119 296 46 l 504 -63 l 494 -146 l 217 -39 l 152 670 q 152 677 151 682 q 151 688 151 694 q 151 729 163 762 q 174 794 198 821 q 224 851 254 865 q 285 880 320 880 q 366 880 412 879 q 459 878 506 876 z m 324 826 l 307 849 q 272 794 245 729 q 217 664 196 588 l 240 569 q 251 637 272 701 q 293 766 324 826 z"},"9":{"x_min":0,"x_max":689,"ha":689,"o":"m 633 6 l 426 -44 l 431 14 l 509 29 l 509 67 l 435 55 l 438 100 l 509 108 l 506 148 l 443 144 l 447 186 l 504 192 l 504 232 l 451 230 l 466 393 q 439 373 407 362 q 375 352 339 350 l 332 274 l 283 282 l 288 352 q 254 356 224 369 q 194 381 167 403 l 108 339 l 71 370 l 137 431 q 121 449 110 468 q 99 486 91 506 l 34 484 l 19 532 l 79 552 q 77 563 77 572 q 76 581 76 588 q 76 610 80 631 q 84 652 91 670 l 24 705 l 45 751 l 113 715 q 131 742 154 763 q 178 785 207 800 l 181 860 l 220 877 l 245 816 q 262 822 282 825 q 301 829 322 829 q 338 829 354 827 q 369 825 384 821 l 406 882 l 452 867 l 425 808 q 447 798 466 785 q 485 771 502 755 l 511 838 l 588 848 z m 484 564 q 484 628 439 674 q 394 720 331 720 q 267 720 222 674 q 178 628 178 564 q 178 501 223 455 q 267 409 331 409 q 394 409 439 455 q 484 501 484 564 z"}," ":{"x_min":0,"x_max":249,"ha":249,"o":""},"I":{"x_min":0,"x_max":328,"ha":328,"o":"m 328 782 q 294 654 272 560 q 249 466 238 406 q 220 311 211 214 q 201 117 200 19 l 83 6 q 79 55 77 106 q 75 157 75 211 q 75 347 88 498 q 102 649 129 816 z m 252 675 l 234 698 q 200 643 173 578 q 145 513 124 438 l 168 418 q 180 486 201 551 q 222 615 252 675 z"},"H":{"x_min":0,"x_max":668,"ha":668,"o":"m 414 658 q 414 633 396 616 q 377 598 353 598 q 328 598 310 616 q 292 633 292 658 q 292 683 309 701 q 327 719 353 719 q 378 719 396 701 q 414 683 414 658 z m 612 14 l 442 3 l 416 378 l 243 363 l 257 -25 l 69 5 l 106 831 l 215 842 l 234 551 l 482 540 l 475 836 l 603 833 l 578 573 q 572 507 569 475 q 566 442 566 442 q 566 425 567 407 q 568 390 571 371 q 576 338 578 320 q 581 302 581 299 z m 489 457 l 486 489 l 237 506 l 239 429 z"},"4":{"x_min":0,"x_max":714,"ha":714,"o":"m 489 682 q 489 657 471 639 q 453 621 427 621 q 403 621 385 639 q 366 657 366 682 q 366 707 385 725 q 403 743 427 743 q 453 743 471 725 q 489 707 489 682 z m 702 284 l 540 247 l 531 39 l 472 36 l 472 229 l 426 219 l 433 -89 l 364 -108 l 352 202 l 185 162 l 22 215 l 42 273 l 108 252 l 126 292 l 57 315 l 74 364 l 144 341 l 156 386 l 89 409 l 106 458 l 163 436 l 178 481 l 121 501 l 254 886 l 341 870 l 245 366 l 345 365 l 340 478 l 418 497 l 421 364 l 472 363 l 472 563 l 553 566 l 544 361 l 685 359 z"},"~":{"x_min":0,"x_max":539,"ha":539,"o":"m 515 700 q 515 652 510 608 q 504 564 492 523 q 475 463 449 433 q 422 403 386 403 q 363 403 344 420 q 324 438 308 473 q 306 478 295 511 q 284 544 264 604 q 253 638 241 656 q 229 674 217 674 q 195 674 177 646 q 159 619 145 564 q 145 561 138 524 q 132 487 120 417 l 20 497 q 49 647 92 722 q 134 796 189 796 q 218 796 242 782 q 266 768 285 739 q 294 726 307 699 q 320 673 335 634 q 347 605 356 591 q 366 577 375 577 q 393 577 401 600 q 410 623 410 668 q 410 690 408 713 q 406 736 403 761 l 511 791 q 514 768 514 745 q 515 722 515 700 z m 247 591 q 247 573 238 564 q 229 556 212 556 q 195 556 186 564 q 177 573 177 591 q 177 608 186 617 q 195 625 212 625 q 229 625 238 617 q 247 608 247 591 z"},"D":{"x_min":0,"x_max":715,"ha":715,"o":"m 666 454 q 666 348 615 263 q 565 178 464 114 q 384 63 286 31 q 187 -1 69 -14 l 122 871 q 250 863 345 841 q 439 819 499 784 q 583 734 624 652 q 666 569 666 454 z m 515 453 l 515 502 l 445 504 l 438 568 l 506 571 l 503 616 l 431 623 l 415 765 q 378 782 335 795 q 292 808 243 815 l 253 72 q 301 83 347 101 q 393 119 436 144 l 441 328 l 506 332 l 512 381 l 442 384 l 443 448 z m 364 455 q 364 413 361 375 q 358 338 353 304 l 328 317 q 329 333 329 349 q 330 365 330 382 q 330 438 324 489 q 319 541 308 588 l 356 588 q 360 556 362 522 q 364 489 364 455 z"},"^":{"x_min":0,"x_max":539,"ha":539,"o":"m 509 289 l 390 258 l 376 304 l 408 314 l 393 355 l 364 348 l 350 395 l 381 405 l 369 446 l 339 438 l 332 479 l 359 491 l 273 749 l 120 263 l 44 289 l 235 825 l 269 805 l 315 835 z m 289 514 q 289 502 283 497 q 278 491 267 491 q 255 491 250 497 q 244 502 244 514 q 244 525 250 531 q 255 537 267 537 q 278 537 283 531 q 289 525 289 514 z m 295 410 q 295 396 288 388 q 281 381 267 381 q 252 381 245 388 q 238 396 238 410 q 238 424 245 431 q 252 438 267 438 q 281 438 288 431 q 295 424 295 410 z m 316 274 q 316 254 302 239 q 287 225 267 225 q 247 225 232 239 q 217 254 217 274 q 217 294 232 309 q 247 324 267 324 q 287 324 302 309 q 316 294 316 274 z"},"0":{"x_min":0,"x_max":694,"ha":694,"o":"m 650 413 q 650 336 632 267 q 613 198 577 136 q 534 62 476 26 q 418 -11 348 -11 q 277 -11 219 26 q 162 62 118 136 q 82 198 63 267 q 44 336 44 413 q 44 489 63 558 q 82 627 118 690 q 162 764 219 801 q 277 837 348 837 q 418 837 476 801 q 534 764 577 690 q 613 627 632 558 q 650 489 650 413 z m 568 390 l 516 394 l 511 443 l 566 447 q 562 492 552 532 q 541 573 523 608 l 455 561 l 427 598 l 494 657 q 470 688 442 704 q 414 720 381 720 q 373 720 366 720 q 359 719 355 718 l 363 621 l 314 608 l 306 693 q 272 668 248 627 q 224 587 209 531 l 271 506 l 258 461 l 200 481 q 196 458 195 436 q 193 414 193 393 l 245 408 l 265 360 l 197 336 q 200 309 206 281 q 213 254 223 226 l 271 253 l 292 213 l 245 178 q 273 128 307 104 q 341 79 380 79 l 371 163 l 425 170 l 441 95 q 465 108 486 132 q 506 155 523 188 l 438 255 l 473 292 l 546 245 q 556 278 562 314 q 568 351 568 390 z m 451 431 q 451 406 432 387 q 413 368 388 368 q 361 368 342 386 q 322 405 322 431 q 322 457 342 476 q 361 495 388 495 q 413 495 432 476 q 451 457 451 431 z"},"F":{"x_min":0,"x_max":544,"ha":544,"o":"m 583 887 q 583 828 545 789 q 507 750 430 730 q 403 723 341 716 q 279 709 183 703 l 209 499 l 441 536 l 459 477 l 219 441 l 223 417 l 458 434 l 457 355 l 233 348 l 284 5 l 69 -24 l 69 63 l 141 81 l 139 125 l 69 116 l 70 182 l 136 193 l 134 238 l 70 229 l 70 292 l 133 304 l 131 348 l 71 344 l 84 800 l 324 804 q 379 805 417 809 q 455 813 476 820 q 516 834 535 863 q 554 892 551 935 l 578 930 q 581 918 582 907 q 583 897 583 887 z"},"`":{"x_min":0,"x_max":340,"ha":340,"o":"m 278 547 l 239 509 l 62 653 l 145 743 z"},"k":{"x_min":0,"x_max":553,"ha":553,"o":"m 374 790 q 374 772 365 763 q 356 755 339 755 q 322 755 313 763 q 304 772 304 790 q 304 808 313 816 q 322 825 339 825 q 356 825 365 816 q 374 808 374 790 z m 365 677 q 365 659 357 651 q 348 642 331 642 q 312 642 304 651 q 295 659 295 677 q 295 694 304 703 q 312 711 331 711 q 348 711 357 703 q 365 694 365 677 z m 352 556 q 352 538 343 530 q 334 521 316 521 q 299 521 291 530 q 282 538 282 556 q 282 573 291 582 q 299 591 316 591 q 334 591 343 582 q 352 573 352 556 z m 535 87 q 535 34 500 -1 q 464 -36 411 -36 q 378 -36 348 -17 q 318 2 291 40 q 271 73 252 106 q 232 139 213 172 l 183 161 l 157 -19 l 62 -11 l 75 526 l 139 534 l 141 583 l 74 576 l 75 628 l 146 635 l 150 682 l 75 673 l 76 723 l 147 740 l 147 782 l 77 773 l 77 823 l 287 870 l 218 403 q 265 429 307 442 q 348 455 384 455 q 427 455 448 440 q 468 424 468 394 q 468 366 448 336 q 429 307 390 274 q 363 251 331 231 q 300 210 264 192 q 285 157 302 133 q 318 108 329 96 q 354 66 377 52 q 400 37 421 37 q 443 37 458 52 q 472 67 472 89 q 472 107 465 116 q 458 125 443 125 q 432 125 426 119 q 420 114 420 103 q 420 101 421 98 q 422 96 422 94 l 397 86 q 393 96 390 105 q 388 114 388 124 q 388 149 406 166 q 424 182 450 182 q 470 182 485 175 q 501 167 512 153 q 523 140 529 123 q 535 107 535 87 z m 346 353 q 346 371 337 380 q 327 389 308 389 q 287 389 262 378 q 238 368 209 346 l 188 196 q 215 205 240 220 q 266 235 289 255 q 317 280 332 304 q 346 329 346 353 z"},"u":{"x_min":0,"x_max":629,"ha":629,"o":"m 371 386 q 344 330 325 272 q 306 214 296 156 l 257 172 q 276 240 301 299 q 326 358 356 408 z m 548 -31 l 386 -10 l 400 104 q 363 50 321 23 q 279 -3 232 -3 q 173 -3 136 40 q 98 83 81 171 l 120 181 l 117 215 l 75 203 l 66 248 l 109 260 l 107 292 l 60 282 l 50 331 l 100 341 l 95 375 l 44 365 l 37 403 l 223 435 q 221 314 219 252 q 218 190 218 188 q 218 129 233 101 q 248 72 277 72 q 308 72 342 103 q 375 133 411 193 l 438 421 l 527 426 z"},"]":{"x_min":0,"x_max":561,"ha":561,"o":"m 458 900 q 458 882 449 874 q 440 865 422 865 q 405 865 396 874 q 386 882 386 900 q 386 917 396 926 q 405 935 422 935 q 440 935 449 926 q 458 917 458 900 z m 472 778 q 472 760 464 751 q 455 743 438 743 q 420 743 412 751 q 403 760 403 778 q 403 794 412 803 q 420 812 438 812 q 455 812 464 803 q 472 794 472 778 z m 484 657 q 484 639 475 630 q 466 622 448 622 q 431 622 422 630 q 414 639 414 657 q 414 674 422 683 q 431 692 448 692 q 466 692 475 683 q 484 674 484 657 z m 492 543 q 492 526 484 517 q 475 509 458 509 q 440 509 431 517 q 422 526 422 543 q 422 561 431 569 q 440 578 458 578 q 475 578 484 569 q 492 561 492 543 z m 438 -95 l 0 -26 l 39 82 l 223 35 l 259 853 l 67 830 l 79 932 l 339 945 z m 370 227 l 326 245 q 314 178 293 114 q 272 49 242 -11 l 259 -34 q 294 21 322 86 q 349 151 370 227 z"},"U":{"x_min":0,"x_max":759,"ha":759,"o":"m 676 349 q 676 175 597 89 q 519 2 361 2 q 285 2 229 22 q 173 42 139 82 q 106 118 90 175 q 74 232 74 310 q 74 374 89 501 q 104 628 104 692 q 104 733 98 765 q 92 796 80 817 l 121 836 q 144 792 157 735 q 170 678 175 610 q 177 588 177 529 q 178 470 178 374 q 178 314 181 272 q 185 230 191 207 q 205 158 233 134 q 261 109 304 109 q 354 109 388 126 q 423 144 442 178 q 456 203 463 241 q 470 279 470 331 q 470 341 469 354 q 469 368 468 385 q 468 405 468 418 q 467 431 467 438 l 542 443 l 537 501 l 466 499 l 464 553 l 534 557 l 532 613 l 464 613 l 461 670 l 532 666 l 532 718 l 461 724 l 459 782 l 662 762 q 668 563 672 459 q 676 356 676 349 z m 369 408 q 369 382 351 364 q 333 346 308 346 q 283 346 265 365 q 248 383 248 408 q 248 432 265 450 q 283 468 308 468 q 333 468 351 450 q 369 433 369 408 z"},"o":{"x_min":0,"x_max":621,"ha":621,"o":"m 589 262 l 528 245 q 530 236 531 225 q 532 215 532 203 q 532 186 529 168 q 527 151 522 134 l 571 112 l 546 69 l 507 96 q 489 57 459 29 q 430 2 390 -14 l 404 -72 l 359 -83 l 350 -26 q 335 -29 324 -30 q 313 -31 306 -31 q 276 -31 248 -24 q 220 -17 194 -1 l 158 -57 l 120 -35 l 161 24 q 141 40 126 60 q 111 80 101 104 l 40 84 l 31 126 l 87 138 q 83 156 81 173 q 79 189 79 203 q 79 218 80 233 q 82 247 86 260 l 31 278 l 42 320 l 99 296 q 110 326 129 351 q 148 375 173 394 l 141 445 l 178 471 l 210 416 q 233 427 257 432 q 280 438 306 438 q 331 438 354 432 q 376 427 397 417 l 423 464 l 461 442 l 435 395 q 464 374 484 347 q 505 319 519 285 l 578 312 z m 395 203 q 395 234 389 260 q 383 286 370 307 q 354 333 333 346 q 312 359 283 359 q 255 359 233 346 q 211 333 196 307 q 183 285 177 259 q 171 233 171 203 q 171 171 177 145 q 183 119 195 98 q 210 72 232 59 q 254 46 283 46 q 312 46 334 59 q 356 72 371 98 q 382 119 389 145 q 395 171 395 203 z"},"N":{"x_min":0,"x_max":865,"ha":865,"o":"m 781 513 q 781 498 780 482 q 780 467 779 451 l 754 -51 l 219 492 l 197 26 l 0 25 l 59 183 l 153 188 l 194 871 l 665 292 q 668 338 673 385 q 677 431 682 478 q 687 534 689 581 q 692 627 692 666 q 692 745 673 808 q 655 871 617 917 l 649 937 q 715 865 748 759 q 781 653 781 513 z m 369 524 q 369 542 360 551 q 352 560 334 560 q 317 560 308 551 q 299 542 299 524 q 299 507 308 498 q 317 490 334 490 q 352 490 360 498 q 369 507 369 524 z m 504 375 q 504 394 491 407 q 478 421 460 421 q 440 421 427 407 q 414 394 414 375 q 414 356 427 343 q 440 331 460 331 q 478 331 491 344 q 504 356 504 375 z m 626 227 q 626 244 618 253 q 610 262 592 262 q 574 262 565 253 q 557 244 557 227 q 557 209 565 201 q 574 192 592 192 q 610 192 618 201 q 626 209 626 227 z"},"+":{"x_min":0,"x_max":491,"ha":491,"o":"m 446 370 l 268 370 l 268 203 l 228 203 l 228 370 l 50 370 l 56 464 l 228 464 l 228 625 l 268 625 l 268 464 l 440 464 z m 327 395 l 327 435 l 164 435 l 164 395 z"},"G":{"x_min":0,"x_max":751,"ha":751,"o":"m 714 408 q 712 327 695 260 q 677 193 645 139 q 605 73 549 40 q 492 7 418 7 q 338 7 271 42 q 204 76 150 146 q 100 210 74 283 q 49 356 49 439 q 49 519 71 587 q 93 656 139 711 q 188 771 251 801 q 315 831 393 831 q 431 831 467 821 q 502 811 535 790 q 566 769 591 742 q 616 714 634 680 l 601 672 q 584 689 562 697 q 539 706 507 706 q 442 706 387 670 q 332 634 287 562 q 247 499 227 433 q 208 367 208 297 q 208 247 220 205 q 232 163 258 129 q 286 92 325 74 q 363 55 412 55 q 451 55 482 75 q 513 96 537 136 q 556 169 567 207 q 578 245 581 288 l 356 268 l 343 339 l 552 360 l 374 404 l 379 482 z m 329 695 q 329 712 320 721 q 312 730 294 730 q 277 730 268 721 q 259 712 259 695 q 259 682 270 671 q 280 660 294 660 q 312 660 320 669 q 329 678 329 695 z m 239 622 q 239 640 226 654 q 213 667 194 667 q 176 667 163 654 q 150 640 150 622 q 150 604 163 590 q 176 577 194 577 q 213 577 226 590 q 239 604 239 622 z m 183 506 q 183 523 175 532 q 166 541 148 541 q 131 541 122 532 q 113 523 113 506 q 113 492 124 481 q 134 471 148 471 q 163 471 173 481 q 183 492 183 506 z"},"q":{"x_min":0,"x_max":612,"ha":612,"o":"m 549 481 l 486 -338 l 422 -335 l 396 42 q 366 17 331 4 q 296 -8 257 -8 q 168 -8 106 54 q 44 117 44 206 q 44 294 106 358 q 168 421 257 421 q 290 421 320 411 q 351 401 378 383 l 373 451 z m 302 -158 q 302 -183 283 -200 q 265 -218 240 -218 q 217 -218 199 -200 q 181 -183 181 -158 q 181 -134 198 -116 q 216 -99 240 -99 q 266 -99 284 -116 q 302 -133 302 -158 z m 410 198 l 410 208 q 410 228 406 247 q 401 265 393 283 l 332 243 l 312 282 l 373 315 q 354 338 331 349 q 308 360 282 360 q 278 360 272 360 q 267 359 259 358 l 278 292 l 238 279 l 220 341 q 192 323 176 295 q 159 267 155 228 l 210 226 l 208 190 l 156 186 q 158 163 166 142 q 175 121 189 104 l 226 132 l 245 113 l 215 77 q 231 66 248 61 q 264 56 282 56 q 295 56 306 59 q 317 61 327 66 l 308 132 l 332 145 l 359 86 q 375 101 386 119 q 397 138 404 161 l 352 196 l 368 217 z"},"d":{"x_min":0,"x_max":646,"ha":646,"o":"m 364 760 q 364 742 355 734 q 347 725 329 725 q 312 725 303 734 q 294 742 294 760 q 294 778 303 787 q 312 795 329 795 q 347 795 355 787 q 364 778 364 760 z m 373 647 q 373 629 364 621 q 355 612 338 612 q 321 612 312 621 q 303 629 303 647 q 303 664 312 673 q 321 682 338 682 q 355 682 364 673 q 373 664 373 647 z m 386 526 q 386 508 378 500 q 369 491 352 491 q 334 491 325 500 q 316 508 316 526 q 316 543 325 552 q 334 561 352 561 q 369 561 378 552 q 386 543 386 526 z m 596 867 l 526 -29 l 438 -21 l 434 101 q 400 54 356 30 q 312 6 257 6 q 168 6 106 70 q 44 134 44 223 q 44 271 62 311 q 80 351 115 382 q 149 412 190 427 q 232 442 280 442 q 326 442 360 430 q 394 417 417 394 l 397 823 z m 425 230 q 425 312 384 352 q 344 391 262 391 l 253 391 l 242 328 l 177 340 l 172 304 l 234 289 l 228 245 l 166 260 l 159 226 l 220 208 l 213 170 l 153 186 l 144 145 l 206 131 l 196 69 q 213 62 230 58 q 247 54 264 54 q 298 54 327 68 q 356 81 380 108 q 402 134 414 165 q 425 195 425 230 z"},"1":{"x_min":0,"x_max":408,"ha":408,"o":"m 302 845 l 264 12 l 158 -2 l 97 707 l 19 685 l -6 762 z m 247 623 l 198 629 q 180 554 171 490 q 162 426 163 373 l 163 348 l 189 358 q 193 428 208 494 q 223 561 247 623 z"},"5":{"x_min":0,"x_max":635,"ha":635,"o":"m 586 265 q 586 208 562 160 q 538 112 489 74 q 443 38 392 20 q 341 1 282 1 q 230 1 184 18 q 139 35 100 69 q 60 104 39 147 q 19 190 19 242 l 80 255 q 81 243 83 232 q 85 221 88 210 l 133 232 l 152 198 l 104 170 q 114 147 131 130 q 148 113 171 101 l 190 148 l 229 138 l 213 86 q 228 83 242 81 q 256 80 270 80 q 286 80 301 82 q 315 84 329 89 l 299 167 l 343 186 l 380 117 q 417 146 435 180 q 453 215 453 258 l 390 247 l 383 288 l 448 306 q 441 334 426 358 q 410 381 386 397 l 350 333 l 312 360 l 343 418 q 330 422 313 424 q 297 425 278 425 q 270 425 261 425 q 252 424 243 423 l 250 368 l 206 363 l 198 418 q 187 417 175 414 q 163 411 150 408 l 126 568 l 168 574 l 166 611 l 121 603 l 113 647 l 166 652 l 161 688 l 108 680 l 102 725 l 161 735 l 158 773 l 96 767 l 86 833 l 350 820 q 427 817 475 792 q 522 767 568 707 l 496 658 q 483 688 459 709 q 435 729 400 740 q 378 747 345 751 q 312 756 268 757 l 230 486 q 273 497 306 502 q 339 507 364 507 q 415 507 456 490 q 497 472 527 436 q 556 401 571 359 q 586 316 586 265 z"}}}
